<svg width="195" height="303" viewBox="0 0 195 303" fill="none" xmlns="http://www.w3.org/2000/svg">
<path d="M151.5 201.412C159.605 200.456 168.9 201.884 176 199.912C180.971 198.531 183.116 196.348 186.5 192.912C192.362 186.962 193.632 180.979 191.5 173.412C190.237 168.929 183.171 165.196 185 160.912C185.669 159.346 186.196 158.414 187 156.912C188.403 154.293 189.628 152.497 189.5 149.412C189.351 145.831 182 146.412 185.369 141.215C187.806 137.454 186.835 135.022 184.5 132.412C178 126.912 176.485 122.178 180 118.412C181.138 117.192 181.798 115.951 183 114.412C184.241 112.824 185.117 112.072 186.259 110.412C187.769 108.218 189.5 104.412 189.5 104.412C189.5 104.412 190.045 98.5927 186.259 96.5107C180.568 93.3802 174.418 91.5045 168.339 89.2579C166.461 88.5638 164.777 88.1447 162.974 87.3493C160.594 86.2991 158.474 84.9831 156.251 83.6592C152.422 81.3781 149.94 77.4142 147.5 72.4122C144.78 66.8348 145.89 62.823 144 56.9123C141.64 49.5322 141.412 47.3542 138.5 39.9123C136.405 34.5572 133.719 28.6055 128.449 23.0284C125.303 19.6996 122.665 17.7514 119.351 15.6272C113.703 12.0065 108.174 8.20716 100 5.41218C90.5 2.16362 87.5 1.41215 69 2.41247C33 7.41211 10.9772 40.3013 8 91.9121C9 143.412 32.4399 165.546 75 178.412C103.277 188.803 107.827 197.5 106.5 215.412C103.564 234.74 97.6721 240.434 80 241.912C56.7579 241.069 49.0816 232.044 45.5 199.912H3C4.84437 237.487 16.2003 269.198 28.5 280.912C49.5 300.912 82.5 306.412 111 293.412C111 293.412 114.855 291.412 118.5 288.912C132.568 279.375 142.368 267.212 147.5 248.5C152.297 231.007 151.726 224.697 151.5 201.412ZM151.5 201.412C149.657 185.27 147.887 176.826 141.5 164.412C129.746 143.431 118.121 134.351 100 126.579M100 126.579C94.7627 124.333 88.9826 122.196 82.5 119.912C64.2466 114.016 54.1789 105.012 53.5 88.4121C52.8273 71.9649 62.2981 59.6722 78 59.9121C94.7057 60.1674 104.932 68.5842 106.5 91.9121C106.668 106.838 105.116 114.355 100 126.579Z" stroke="#EEEEF0" stroke-width="4" stroke-linecap="round"/>
<path d="M145.5 69.4121C145.819 69.4121 145.64 68.6943 145.893 68.5939C146.386 68.3979 147.462 68.6859 147.921 68.4572C148.99 68.1218 150.132 67.7397 151.393 66.9576C152.799 66.0853 153.518 65.4148 154.605 64.1527C155.258 63.3938 155.726 63.0003 156.106 62.0738C156.359 61.4567 156.5 60.4121 156.5 60.4121" stroke="#EEEEF0" stroke-linecap="round"/>
<path d="M147.5 69.4121C149.165 69.0366 150.435 68.6828 151.993 67.8749C153.05 67.3268 154.414 66.2542 154.414 66.2542C154.414 66.2542 156.002 64.7976 156.666 64.0454C157.22 63.4177 157.71 62.7233 158.136 62.0537C158.256 61.866 158.4 61.6113 158.5 61.4121" stroke="#EEEEF0" stroke-linecap="round"/>
</svg>
