<svg width="226" height="226" viewBox="0 0 226 226" fill="none" xmlns="http://www.w3.org/2000/svg">
<circle cx="13.3972" cy="13.3975" r="12.5" fill="#303136"/>
<circle cx="13.3972" cy="63.3975" r="12.5" fill="#303136"/>
<circle cx="13.3972" cy="113.397" r="12.5" fill="#303136"/>
<circle cx="13.3972" cy="163.397" r="12.5" fill="#303136"/>
<circle cx="13.3972" cy="213.397" r="12.5" fill="#303136"/>
<circle cx="63.3972" cy="13.3975" r="12.5" fill="#303136"/>
<circle cx="63.3972" cy="63.3975" r="12.5" fill="#303136"/>
<circle cx="63.3972" cy="113.397" r="12.5" fill="#303136"/>
<circle cx="63.3972" cy="163.397" r="12.5" fill="#303136"/>
<circle cx="63.3972" cy="213.397" r="12.5" fill="#303136"/>
<circle cx="113.397" cy="13.3975" r="12.5" fill="#303136"/>
<circle cx="113.397" cy="63.3975" r="12.5" fill="#303136"/>
<circle cx="113.397" cy="113.397" r="12.5" fill="#303136"/>
<circle cx="113.397" cy="163.397" r="12.5" fill="#303136"/>
<circle cx="113.397" cy="213.397" r="12.5" fill="#303136"/>
<circle cx="163.397" cy="13.3975" r="12.5" fill="#303136"/>
<circle cx="163.397" cy="63.3975" r="12.5" fill="#303136"/>
<circle cx="163.397" cy="113.397" r="12.5" fill="#303136"/>
<circle cx="163.397" cy="163.397" r="12.5" fill="#303136"/>
<circle cx="163.397" cy="213.397" r="12.5" fill="#303136"/>
<circle cx="213.397" cy="13.3975" r="12.5" fill="#303136"/>
<circle cx="213.397" cy="63.3975" r="12.5" fill="#303136"/>
<circle cx="213.397" cy="113.397" r="12.5" fill="#303136"/>
<circle cx="213.397" cy="163.397" r="12.5" fill="#303136"/>
<circle cx="213.397" cy="213.397" r="12.5" fill="#303136"/>
</svg>
